<?xml version="1.0" standalone="no"?>
<!DOCTYPE svg PUBLIC "-//W3C//DTD SVG 20010904//EN"
 "http://www.w3.org/TR/2001/REC-SVG-20010904/DTD/svg10.dtd">
<svg version="1.0" xmlns="http://www.w3.org/2000/svg"
 width="1280.000000pt" height="904.000000pt" viewBox="0 0 1280.000000 904.000000"
 preserveAspectRatio="xMidYMid meet">
<metadata>
Created by potrace 1.15, written by Peter Selinger 2001-2017
</metadata>
<g transform="translate(0.000000,904.000000) scale(0.100000,-0.100000)"
fill="#000000" stroke="none">
<path d="M6560 8669 c-314 -52 -586 -254 -733 -544 -20 -39 -40 -82 -46 -97
l-11 -28 -155 0 c-103 0 -182 -5 -232 -16 -435 -90 -647 -478 -464 -849 130
-262 429 -415 814 -415 l118 0 -5 -52 c-3 -29 -13 -161 -21 -293 -9 -132 -18
-263 -21 -291 l-5 -50 -122 -81 c-461 -303 -777 -848 -927 -1598 -64 -321 -93
-644 -94 -1041 l-1 -281 -75 23 c-268 84 -585 192 -583 200 1 5 7 36 14 69 6
33 9 77 5 97 -19 102 -182 242 -463 398 -152 85 -195 80 -255 -27 -16 -29 -32
-53 -34 -53 -2 0 -108 52 -234 115 -246 123 -270 130 -363 104 -47 -13 -106
-63 -123 -106 -18 -42 -18 -125 0 -166 25 -58 67 -85 227 -148 85 -33 158 -64
162 -68 5 -5 1 -24 -9 -42 -12 -22 -19 -60 -20 -107 -2 -55 -9 -86 -30 -128
-19 -39 -27 -73 -29 -122 -2 -37 -11 -87 -20 -112 -18 -49 -15 -98 9 -134 19
-29 138 -100 224 -133 83 -32 181 -36 227 -9 29 17 32 17 107 -8 154 -50 295
-54 378 -11 26 14 63 61 116 151 9 16 40 8 415 -112 l404 -130 12 -60 c99
-471 229 -804 433 -1113 416 -629 1037 -953 1784 -928 183 6 265 20 411 68
351 117 689 393 940 769 248 372 402 804 455 1280 22 199 13 536 -21 756 l-11
72 202 370 c197 360 203 370 227 361 104 -39 233 34 387 220 36 44 130 139
209 211 140 127 167 160 167 200 0 27 -68 100 -108 117 -38 16 -41 9 37 108
41 52 44 61 48 128 4 63 2 76 -19 107 -39 57 -82 80 -152 80 -57 0 -62 2 -78
30 -31 55 -161 90 -218 60 -15 -8 -23 -4 -40 20 -55 77 -173 88 -249 24 l-30
-25 -38 25 c-65 44 -150 28 -215 -41 -39 -41 -46 -69 -59 -220 -11 -142 -35
-232 -79 -293 -58 -82 -110 -240 -110 -334 0 -77 17 -112 84 -174 l58 -52 -93
-170 c-52 -94 -97 -170 -100 -170 -8 0 -25 48 -80 220 -72 231 -108 417 -164
872 -38 309 -72 468 -124 581 -63 140 -173 263 -298 335 -53 30 -65 43 -73 72
-5 19 -49 193 -99 386 -50 193 -91 357 -91 364 0 10 17 11 68 6 90 -9 250 10
341 40 92 31 196 97 244 156 20 24 51 75 69 113 27 58 33 85 36 159 5 105 -8
175 -53 271 -92 200 -300 372 -554 461 -39 13 -59 27 -70 47 -78 141 -207 294
-324 384 -123 95 -297 170 -456 198 -91 16 -264 18 -351 4z"/>
</g>
</svg>
